<?xml version="1.0" encoding="UTF-8" standalone="no"?>
<svg
   xmlns:dc="http://purl.org/dc/elements/1.1/"
   xmlns:cc="http://creativecommons.org/ns#"
   xmlns:rdf="http://www.w3.org/1999/02/22-rdf-syntax-ns#"
   xmlns:svg="http://www.w3.org/2000/svg"
   xmlns="http://www.w3.org/2000/svg"
   xmlns:sodipodi="http://sodipodi.sourceforge.net/DTD/sodipodi-0.dtd"
   xmlns:inkscape="http://www.inkscape.org/namespaces/inkscape"
   width="159.16728mm"
   height="171.73625mm"
   viewBox="0 0 159.16728 171.73625"
   version="1.1"
   id="svg8"
   inkscape:version="1.0.1 (3bc2e813f5, 2020-09-07)"
   sodipodi:docname="disegno.svg">
  <defs
     id="defs2">
    <marker
       style="overflow:visible"
       id="marker1311"
       refX="0"
       refY="0"
       orient="auto"
       inkscape:stockid="Arrow1Mend"
       inkscape:isstock="true">
      <path
         transform="matrix(-0.4,0,0,-0.4,-4,0)"
         style="fill:#000000;fill-opacity:1;fill-rule:evenodd;stroke:#000000;stroke-width:1pt;stroke-opacity:1"
         d="M 0,0 5,-5 -12.5,0 5,5 Z"
         id="path1309" />
    </marker>
    <marker
       style="overflow:visible"
       id="Arrow1Mend"
       refX="0"
       refY="0"
       orient="auto"
       inkscape:stockid="Arrow1Mend"
       inkscape:isstock="true"
       inkscape:collect="always">
      <path
         transform="matrix(-0.4,0,0,-0.4,-4,0)"
         style="fill:#000000;fill-opacity:1;fill-rule:evenodd;stroke:#000000;stroke-width:1pt;stroke-opacity:1"
         d="M 0,0 5,-5 -12.5,0 5,5 Z"
         id="path965" />
    </marker>
    <marker
       style="overflow:visible"
       id="Arrow1Lend"
       refX="0"
       refY="0"
       orient="auto"
       inkscape:stockid="Arrow1Lend"
       inkscape:isstock="true">
      <path
         transform="matrix(-0.8,0,0,-0.8,-10,0)"
         style="fill:#000000;fill-opacity:1;fill-rule:evenodd;stroke:#000000;stroke-width:1pt;stroke-opacity:1"
         d="M 0,0 5,-5 -12.5,0 5,5 Z"
         id="path959" />
    </marker>
  </defs>
  <sodipodi:namedview
     id="base"
     pagecolor="#ffffff"
     bordercolor="#666666"
     borderopacity="1.0"
     inkscape:pageopacity="0.0"
     inkscape:pageshadow="2"
     inkscape:zoom="0.7"
     inkscape:cx="246.42488"
     inkscape:cy="509.1236"
     inkscape:document-units="mm"
     inkscape:current-layer="layer1"
     inkscape:document-rotation="0"
     showgrid="true"
     inkscape:window-width="1916"
     inkscape:window-height="1036"
     inkscape:window-x="0"
     inkscape:window-y="20"
     inkscape:window-maximized="0"
     fit-margin-top="0"
     fit-margin-left="0"
     fit-margin-right="0"
     fit-margin-bottom="0">
    <inkscape:grid
       type="xygrid"
       id="grid36"
       originx="-1.0732772"
       originy="-0.63979246" />
  </sodipodi:namedview>
  <metadata
     id="metadata5">
    <rdf:RDF>
      <cc:Work
         rdf:about="">
        <dc:format>image/svg+xml</dc:format>
        <dc:type
           rdf:resource="http://purl.org/dc/dcmitype/StillImage" />
        <dc:title></dc:title>
      </cc:Work>
    </rdf:RDF>
  </metadata>
  <g
     inkscape:label="Livello 1"
     inkscape:groupmode="layer"
     id="layer1"
     transform="translate(-1.0732772,-0.63979247)">
    <g
       id="g1491"
       transform="translate(-18.52083,-12.964584)">
      <path
         style="fill:none;stroke:#000000;stroke-width:0.765;stroke-linecap:butt;stroke-linejoin:miter;stroke-miterlimit:4;stroke-dasharray:none;stroke-opacity:1"
         d="M 83.455707,25.787211 23.088439,51.056693 24.623167,139.53262 75.709102,113.28575 Z"
         id="path10" />
      <path
         style="fill:none;stroke:#000000;stroke-width:0.765;stroke-linecap:butt;stroke-linejoin:miter;stroke-miterlimit:4;stroke-dasharray:none;stroke-opacity:1"
         d="m 114.99433,35.926773 22.46506,-21.840817 40.85098,25.075922 -22.47919,74.858752 -39.40656,7.17251 z"
         id="path12" />
      <circle
         id="path14"
         style="fill:#000000;stroke:#000000;stroke-width:0.264583"
         cx="116.42071"
         cy="121.18791"
         r="0.0015610342" />
      <circle
         id="path16"
         style="fill:#000000;stroke:#000000;stroke-width:0.264583"
         cx="116.32986"
         cy="121.12801"
         r="0.012488274" />
      <circle
         id="path18"
         style="fill:#000000;stroke:#000000;stroke-width:0.264583"
         cx="116.62503"
         cy="121.15821"
         r="0.012488274" />
      <circle
         id="path22"
         style="fill:#000000;stroke:#000000;stroke-width:0.264583"
         cx="116.37515"
         cy="120.71997"
         r="0.012488274" />
      <circle
         id="path24"
         style="fill:#000000;stroke:#000000;stroke-width:0.264583"
         cx="116.38013"
         cy="126.18289"
         r="0.012488274" />
      <path
         style="fill:none;stroke:#000000;stroke-width:0.765;stroke-linecap:butt;stroke-linejoin:miter;stroke-miterlimit:4;stroke-dasharray:none;stroke-opacity:1"
         d="m 116.42462,121.19314 15.7736,52.39769 23.63296,-59.5702 z"
         id="path30" />
      <path
         style="fill:none;stroke:#000000;stroke-width:0.765;stroke-linecap:butt;stroke-linejoin:miter;stroke-miterlimit:4;stroke-dasharray:none;stroke-opacity:1"
         d="m 24.623167,139.53262 17.097433,31.875 33.988502,-58.12187"
         id="path32" />
      <path
         style="fill:none;stroke:#000000;stroke-width:0.264583px;stroke-linecap:butt;stroke-linejoin:miter;stroke-opacity:1"
         d="M 19.84375,185.20833 H 150.8125 l 13.22916,-37.04167 H 44.979166 Z"
         id="path38"
         sodipodi:nodetypes="ccccc" />
      <path
         style="fill:#e6e6e6;stroke-width:0.714286"
         d="m 77.388843,698.41923 c 0.431261,-1.19148 58.800507,-87.13621 59.200117,-87.16813 0.21483,-0.0172 4.8977,8.35721 10.40638,18.60972 5.50868,10.25251 10.31506,18.65527 10.68083,18.67281 0.36578,0.0175 12.23648,-19.77536 26.37934,-43.98422 l 25.71429,-44.01611 130.17857,-0.0139 c 71.59821,-0.008 130.17857,0.14368 130.17857,0.33621 0,1.06063 28.79161,95.8195 29.26458,96.3155 0.31158,0.32677 7.559,-17.03037 16.10535,-38.57142 8.54635,-21.54106 17.20006,-43.34413 19.23046,-48.45127 l 3.69164,-9.28571 40.1397,-0.18452 c 22.07683,-0.10149 40.1397,-0.0821 40.1397,0.043 0,0.30577 -47.67141,133.89253 -48.67229,136.39148 l -0.78674,1.96428 H 323.19505 c -149.64274,0 -245.951015,-0.25773 -245.806207,-0.65781 z"
         id="path42"
         transform="scale(0.26458333)" />
      <path
         style="fill:#b3b3b3;stroke-width:0.714286"
         d="M 115.64795,567.48461 C 104.00448,545.7745 94.704371,527.81009 94.981043,527.56369 c 1.085346,-0.9666 187.451727,-96.41891 187.723327,-96.14731 0.1592,0.1592 -16.46937,28.94798 -36.95237,63.97506 l -37.24184,63.6856 h -19.50434 -19.50435 l -15.85062,23.39286 c -8.71784,12.86607 -16.07165,23.63918 -16.34179,23.94023 -0.27014,0.30107 -10.01765,-17.21542 -21.66111,-38.92552 z"
         id="path44"
         transform="scale(0.26458333)" />
      <path
         style="fill:#b3b3b3;stroke-width:0.714286"
         d="m 147.71468,627.28655 -9.79938,-18.26051 7.09493,-10.51021 c 3.90221,-5.78062 11.2501,-16.61736 16.32864,-24.08165 l 9.23372,-13.57142 18.3486,-0.19063 c 10.09173,-0.10485 18.34861,-0.0292 18.34861,0.16818 0,0.47948 -48.51445,83.43842 -49.21116,84.15031 -0.29952,0.30604 -4.9543,-7.66079 -10.34396,-17.70407 z"
         id="path46"
         transform="scale(0.26458333)" />
      <path
         style="fill:#b3b3b3;stroke-width:1.64031;stroke-miterlimit:4;stroke-dasharray:none"
         d="m 456.446,509.88626 c -8.17776,-27.15584 -14.88265,-49.80963 -14.89975,-50.34175 -0.0286,-0.89002 5.81132,-2.03045 72.93569,-14.24307 40.13172,-7.30157 73.0052,-13.23016 73.05217,-13.17464 0.047,0.0555 -11.23193,28.62511 -25.06423,63.488 l -25.14963,63.38708 -33.00279,0.12932 -33.00279,0.12932 z"
         id="path52"
         transform="scale(0.26458333)" />
      <path
         style="fill:#b3b3b3;stroke-width:0.505076"
         d="m 485.75872,607.26081 c -7.61213,-25.30036 -13.72817,-46.11271 -13.5912,-46.24967 0.13696,-0.13697 14.66855,-0.19051 32.29242,-0.11899 l 32.04339,0.13003 -18.01913,45.44067 c -9.91053,24.99237 -18.21401,45.74621 -18.45219,46.11964 -0.28101,0.44058 -5.29255,-15.47246 -14.27329,-45.32168 z"
         id="path54"
         transform="scale(0.26458333)" />
      <path
         style="fill:#c8b7b7;stroke-width:1.01015"
         d="m 441.0652,451.70104 c -0.29243,-2.94062 -1.47288,-68.30434 -2.62321,-145.25271 -1.15034,-76.94837 -2.19629,-146.72466 -2.32433,-155.05842 l -0.23279,-15.15229 37.88072,-36.812405 c 20.83439,-20.246824 39.75003,-38.576417 42.03475,-40.732429 l 4.15403,-3.920021 76.15309,46.707765 c 41.88421,25.68927 76.25383,46.77125 76.37696,46.84885 0.59327,0.37389 -83.91798,279.99378 -84.92593,280.99191 -0.63849,0.63228 -32.9807,6.90812 -71.87157,13.94632 -38.89088,7.0382 -71.47103,13.01797 -72.40035,13.28838 -1.38666,0.40347 -1.78503,-0.46719 -2.22137,-4.85495 z"
         id="path58"
         transform="scale(0.26458333)" />
      <path
         style="fill:#c8b7b7;stroke-width:73.5761;stroke-miterlimit:4;stroke-dasharray:none"
         d="M 93.889158,516.3331 C 93.85667,511.17988 92.5664,436.50547 91.021893,350.38996 89.477386,264.27446 88.253904,193.77129 88.303044,193.71626 88.784508,193.17705 313.62955,99.508551 313.86859,99.747597 c 0.52025,0.520243 -27.9853,323.146223 -28.78077,325.740943 -0.58594,1.91129 -14.15927,9.26952 -70.42636,38.17879 -38.33529,19.69614 -81.17839,41.7116 -95.20688,48.92322 l -25.506351,13.11204 z"
         id="path60"
         transform="scale(0.26458333)" />
      <circle
         style="fill:#000000;stroke-width:0.264583"
         id="path64-3"
         cx="37.703125"
         cy="69.453125"
         r="0.66145831" />
      <circle
         style="fill:#000000;stroke-width:0.264583"
         id="path64-6"
         cx="62.838543"
         cy="48.286457"
         r="0.66145831" />
      <circle
         style="fill:#000000;stroke-width:0.264583"
         id="path64-7"
         cx="60.192707"
         cy="80.036461"
         r="0.66145831" />
      <circle
         style="fill:#000000;stroke-width:0.264583"
         id="path64-5"
         cx="46.963543"
         cy="101.20312"
         r="0.66145831" />
      <circle
         style="fill:#000000;stroke-width:0.264583"
         id="path64-35"
         cx="135.59895"
         cy="40.348957"
         r="0.66145831" />
      <circle
         style="fill:#000000;stroke-width:0.264583"
         id="path64-62"
         cx="130.3073"
         cy="64.161461"
         r="0.66145831" />
      <circle
         style="fill:#000000;stroke-width:0.264583"
         id="path64-9"
         cx="151.47395"
         cy="69.453125"
         r="0.66145831" />
      <circle
         style="fill:#000000;stroke-width:0.264583"
         id="path64-1"
         cx="138.2448"
         cy="95.911461"
         r="0.66145831" />
      <circle
         style="fill:#000000;stroke-width:0.264583"
         id="path64-2"
         cx="146.1823"
         cy="53.578125"
         r="0.66145831" />
      <path
         style="fill:none;stroke:#000000;stroke-width:0.465;stroke-linecap:butt;stroke-linejoin:miter;stroke-miterlimit:3.9;stroke-dasharray:none;stroke-opacity:1;marker-end:url(#Arrow1Mend)"
         d="M 137.58333,94.985417 C 117.73958,63.235418 63.5,79.375 63.5,79.375"
         id="path131"
         sodipodi:nodetypes="cc" />
      <circle
         style="fill:#000000;stroke-width:0.264583"
         id="path64-5-4"
         cx="41.671875"
         cy="172.64061"
         r="0.66145831" />
      <circle
         style="fill:#000000;stroke-width:0.264583"
         id="path64-5-3"
         cx="132.06093"
         cy="174.84312"
         r="0.66145831" />
      <path
         style="fill:none;stroke:#000000;stroke-width:0.465;stroke-linecap:butt;stroke-linejoin:miter;stroke-miterlimit:4;stroke-dasharray:none;stroke-opacity:1;marker-end:url(#marker1311)"
         d="m 44.185417,171.97917 c 50.270833,-22.48958 85.460413,1.32291 85.460413,1.32291"
         id="path1307"
         sodipodi:nodetypes="cc" />
      <text
         xml:space="preserve"
         style="font-style:normal;font-variant:normal;font-weight:normal;font-stretch:normal;font-size:10.5833px;line-height:1.25;font-family:Z003;-inkscape-font-specification:Z003;stroke-width:0.264583"
         x="132.29167"
         y="101.86458"
         id="text1427"><tspan
           sodipodi:role="line"
           id="tspan1425"
           x="132.29167"
           y="101.86458"
           style="font-style:normal;font-variant:normal;font-weight:normal;font-stretch:normal;font-family:Z003;-inkscape-font-specification:Z003;stroke-width:0.264583">x</tspan></text>
      <text
         xml:space="preserve"
         style="font-style:normal;font-variant:normal;font-weight:normal;font-stretch:normal;font-size:10.5833px;line-height:1.25;font-family:Z003;-inkscape-font-specification:Z003;stroke-width:0.264583"
         x="85.510399"
         y="169.1925"
         id="text1431"><tspan
           sodipodi:role="line"
           id="tspan1429"
           x="85.510399"
           y="169.1925"
           style="font-style:normal;font-variant:normal;font-weight:normal;font-stretch:normal;font-family:Z003;-inkscape-font-specification:Z003;stroke-width:0.264583">u</tspan></text>
      <text
         xml:space="preserve"
         style="font-size:8.5294px;line-height:1.25;font-family:'DejaVu Sans Mono';-inkscape-font-specification:'DejaVu Sans Mono';stroke-width:0.213235"
         x="31.815411"
         y="183.40707"
         id="text1435"
         transform="scale(1.0466437,0.95543498)"><tspan
           sodipodi:role="line"
           id="tspan1433"
           x="31.815411"
           y="183.40707"
           style="font-style:normal;font-variant:normal;font-weight:normal;font-stretch:normal;font-family:Z003;-inkscape-font-specification:Z003;stroke-width:0.213235">C</tspan></text>
      <text
         xml:space="preserve"
         style="font-size:8.61713px;line-height:1.25;font-family:'DejaVu Sans Mono';-inkscape-font-specification:'DejaVu Sans Mono';stroke-width:0.215429"
         x="133.52049"
         y="180.19246"
         id="text1439"
         transform="scale(1.0110168,0.98910325)"><tspan
           sodipodi:role="line"
           id="tspan1437"
           x="133.52049"
           y="180.19246"
           style="font-style:normal;font-variant:normal;font-weight:normal;font-stretch:normal;font-family:Z003;-inkscape-font-specification:Z003;stroke-width:0.215429">C'</tspan></text>
    </g>
  </g>
</svg>
